<svg xmlns="http://www.w3.org/2000/svg" xmlns:xlink="http://www.w3.org/1999/xlink" width="1159.846" height="920.581" viewBox="0 0 1159.846 920.581"><defs><style>.a,.j,.k,.l{fill:#1994a4;}.a{opacity:0.05;}.b{fill:#fff;}.c{fill:url(#a);}.d{fill:#4c4981;}.e,.k{opacity:0.1;}.f{fill:#ffb8b8;}.g{fill:#444053;}.h{opacity:0.03;}.i{fill:#f16a24;}.l{opacity:0.09;}</style><linearGradient id="a" x1="0.5" y1="1" x2="0.5" gradientUnits="objectBoundingBox"><stop offset="0" stop-color="gray" stop-opacity="0.251"/><stop offset="0.54" stop-color="gray" stop-opacity="0.122"/><stop offset="1" stop-color="gray" stop-opacity="0.102"/></linearGradient></defs><g transform="translate(-1003.697 -79.375)"><g transform="translate(-10866 -2621)"><path class="a" d="M1441.685,564.715c0,66.068-19.014,128.686-53.032,184.737q-8.817,14.552-18.971,28.485c-28.8,39.58-65.392,75.295-108.149,105.907q-3.924,2.8-7.9,5.548c-1.006.69-2,1.38-3,2.07q-6.273,4.247-12.69,8.365c-1.351.862-2.7,1.71-4.053,2.558-1.15.733-2.314,1.452-3.478,2.17q-18.691,11.555-38.66,21.86c-1.452.747-2.917,1.495-4.384,2.242-1.265.632-2.529,1.279-3.809,1.911-.891.446-1.8.891-2.687,1.322-1.495.747-3,1.48-4.513,2.2q-5.885,2.824-11.857,5.533c-1.825.834-3.665,1.667-5.519,2.472a.109.109,0,0,1-.057.029c-1.84.819-3.679,1.624-5.533,2.414-1.7.733-3.406,1.466-5.116,2.17q-7.718,3.255-15.565,6.295c-1.078.431-2.17.848-3.262,1.265-1.509.575-3,1.15-4.527,1.71-1.94.719-3.866,1.437-5.806,2.141-1.811.661-3.622,1.308-5.447,1.955l-.388.129c-1.825.647-3.65,1.279-5.49,1.9q-14.185,4.872-28.787,9.112c-1.221.359-2.443.7-3.665,1.049-.546.172-1.107.331-1.667.474-1.423.4-2.846.8-4.283,1.193-1.753.5-3.521.977-5.3,1.437q-7.437,1.983-14.947,3.794c-1.7.417-3.377.819-5.073,1.207a.206.206,0,0,1-.1.029l-5.088,1.164c-2.371.546-4.771,1.078-7.171,1.567-2.774.6-5.562,1.178-8.365,1.753-1.739.345-3.478.69-5.217,1.02s-3.492.675-5.231.992q-13.129,2.436-26.473,4.383c-3.306.474-6.611.934-9.945,1.38-2.041.273-4.1.532-6.151.776-1.8.216-3.607.431-5.4.632s-3.593.4-5.4.6h-.014c-.172.029-.345.043-.517.057-2.946.316-5.907.6-8.868.891-1.739.172-3.478.316-5.231.46-1.567.144-3.147.273-4.728.388q-7.093.582-14.228.992-2.307.151-4.613.259c-3.277.187-6.554.331-9.845.46-1.365.057-2.745.115-4.11.158-3.679.129-7.373.216-11.066.287q-3.126.065-6.252.086-3.708.043-7.416.043c-119.589,0-257.042-40.96-370.264-100.5A795.8,795.8,0,0,1,429.9,848.561c-15.321-10.592-29.779-21.486-43.2-32.639C286.655,733,243.353,637.437,323.548,564.715q15.522-14.077,33.443-29.3,13.56-11.533,28.313-23.656c140.083-115.062,354.786-266,497.312-381.072C1122.855-63.282,1441.685,325.005,1441.685,564.715Z" transform="translate(11587.858 2622.208)"/><path class="b" d="M896.706,569.207l-58.968,7.646-3,.388-78.485,10.175L398,633.881c-15.32-10.592-29.779-21.486-43.2-32.639l409.974-24.231,70.911-4.2,2.975-.172Z" transform="translate(11619.756 2836.888)"/><path class="b" d="M645.611,368.207l-311.483,40.4q13.56-11.534,28.313-23.656Z" transform="translate(11610.72 2749.012)"/><path class="b" d="M1185.348,553.134q-8.817,14.552-18.971,28.485l-270.624-35.1L746.86,527.207l146.464,8.666Z" transform="translate(11791.163 2818.526)"/><path class="b" d="M1185.348,553.134q-8.817,14.552-18.971,28.485l-270.624-35.1L746.86,527.207l146.464,8.666Z" transform="translate(11647.163 2306.526)"/></g><g transform="translate(1023.996 179)"><path class="c" d="M882.769,532.389a61.936,61.936,0,0,1-.946-9.256c0-3.725-5.062-7.024-5.062-7.024s-3.126-7.233-5.21-8.3-8.518-10.532-8.518-10.532a8.6,8.6,0,0,0-1.936-5.105,73.383,73.383,0,0,1-5.27-7.953h0c-.868-1.059-.434-1.806-1.737-7.979-.069-.321-.148-.634-.243-.929a1.219,1.219,0,0,0-.139-.4,10.419,10.419,0,0,0,2.457-10.793,4.341,4.341,0,0,0-1.233-1.91c-1.467-1.2-3.812-.7-5.323-1.841l1.606-7.1c.382-1.737.582-3.933-.938-4.871a7.883,7.883,0,0,0-1.789-.6c-2.6-.868-4.116-3.621-4.793-6.269a21.48,21.48,0,0,1-.521-7.814c.3-2.518,1.033-4.967,1.3-7.493a20.578,20.578,0,0,0-3.186-13.319,10.255,10.255,0,0,0-4.211-3.977c-1.606-.721-3.473-.868-4.975-1.737-3.23-2.058-3.065-6.946-5.644-9.751s-7.146-2.8-10.905-1.832-7.5,2.6-11.357,2.2c-2.483-.278-4.81-1.407-7.3-1.667a7.693,7.693,0,0,0-2.136.1v-.078c-1.841.33-3.534,1.355-3.968,3.1a4.738,4.738,0,0,0-.122,1.268c0,1.016.243,2.075.26,3.048a2.9,2.9,0,0,1-.7,2.145c-.495.53-1.224.807-1.736,1.354a2.171,2.171,0,0,0-.634,1.6c0,1.546,1.927,2.909,3.221,3.534h.052c-.347.347-.695.712-1.016,1.085a22.87,22.87,0,0,0-5.748,15.186,23.183,23.183,0,0,0,14.1,21.168l-.182.564a32.39,32.39,0,0,1-1.276,3.282,6.5,6.5,0,0,0-5.453.608c-2.483,1.737-7.337,1.6-8.631,1.276s-14.761-2.023-15.846-1.6-3.23-1.485-4.628,1.068-2.049,3.933-3.473,4.576-3.881,2.657-3.551,3.082-3.56,2.978-3.56,2.978-3.343,3.473-5.279,3.933-6.034,3.091-6.034,3.091l-4.749,3.716s-3.551.538-2.475-1.91-1.945-5.531-1.945-5.531-6.035-12.234-6.035-14.761-4.958-13.3-4.958-13.3l-.608-.061-.278-.79c-.912-2.561-2.092-5.7-3-7.545-1.737-3.517-2.8-3.881-2.8-3.881s-20.908-15.7-34.488-10.914,24.789,19.041,28.236,20.535c1.207.521,2.075,2.205,2.683,4.176a17.869,17.869,0,0,0-7.424,6.677s8.3,18.4,8.518,22.974,5.713,17.365,5.713,17.365,2.049,9.473,13.146,8.935c0,0,15.308,2.813,18.651,0s6.356-5.019,7.979-5.34a6.3,6.3,0,0,0,3.013-2.127s-5.062,31.909-7.545,34.679-24.424,38.595-16.549,45a157.34,157.34,0,0,0,19.719,13.024c.669.33,2.674-3.013,5.539-5.383v1.849c.052,12.746,1.737,32.126,4.064,36.467,3.473,6.382,2.049,18.72,2.049,18.72a14.76,14.76,0,0,0,5.826,1.4c.1.417.226.868.339,1.3,1.9,7.181,4.984,18.286,6.555,21.238,2.37,4.472,4.09,18.624,4.09,18.624s1.407,13.892.868,15.846c-.208.738.7,6.521,2.136,13.892h0c-.868,9.976-2.518,29.209-2.8,36.164h0v.5a2.146,2.146,0,0,1,0,.234v.425h0a6.5,6.5,0,0,0,.052,1.311,4.253,4.253,0,0,1-.148,1.98,34.571,34.571,0,0,1-2.336,5.574,26.558,26.558,0,0,0-1.042,2.692c-.868.382-1.928,1.311-2.518,3.577-1.077,4.15-2.692,15.629-2.692,15.629s-.651,7.024-1.936,8.622-2.6,11.591,6.573,12.868,13.146-4.862,13.146-4.862l-.321-27.854v-.052a4.222,4.222,0,0,0,.478-.755v-.069c.061-.13.13-.269.191-.425l.078-.208.139-.339a.494.494,0,0,1,0-.122,18.408,18.408,0,0,0,.781-8.292V752.8a3.3,3.3,0,0,1,.052-.573v-.1l.052-.339v-.148a.641.641,0,0,1,.07-.347.379.379,0,0,1,0-.087c.087-.4.191-.868.3-1.25v-.1l.13-.417h0c.13-.443.278-.868.434-1.337v-.087a1.217,1.217,0,0,1,.148-.408v-.052c.156-.425.321-.868.478-1.233l.043-.113.139-.347.043-.1.33-.773h0l2.544,7.858s1.407,5.852.651,7.233.868,7.129,1.936,7.233l-1,7.233a110.649,110.649,0,0,0-.964,12.026c-.07.46-.139.868-.191,1.146-.695,3.708.972,9.456.972,9.456,8.509,10.063,18.65.781,18.65.781s1.181-5.323,0-6.382-.651-4.9-.651-4.9.538-9.473.643-16.384-5.652-13.024-5.652-13.024l-.321.287c-1.051-2.709-2.249-5.87-2-7.285.434-2.449-1.19-28.3-1.19-28.3a153.295,153.295,0,0,0,.382-20.839h0c.139-1.172.269-2.327.4-3.473.651-5.557,1.181-10.306,1.389-12.8h0v-.3c.052-.669.078-1.146.069-1.372,0-.868,0-1.858.087-2.943.2-2.987.669-6.312.669-6.312l2.257-13.727s1.737-6.7,4.211-10.419l.3-.469h0c.1-.165.191-.347.3-.538l.043-.078c.1-.182.2-.373.3-.573l.043-.078c.347-.686.721-1.476,1.111-2.344,0-.069.061-.13.087-.2l.3-.66a.681.681,0,0,1,.113-.26c.043-.087.182-.443.278-.66a2.515,2.515,0,0,0,.113-.269c.113-.26.234-.53.347-.807l.165-.4c.078-.2.165-.4.252-.6l.208-.53c.061-.13.113-.26.165-.391l.234-.6c0-.087.078-.182.113-.269.617-1.537,1.207-3.056,1.737-4.437h0c.165-.434.33-.868.478-1.25,5.522.339,9.273.643,9.273.643s1.737-12.442,1.181-20.63c-.365-5.592.677-12.625,1.363-16.5.078-.425.148-.807.217-1.155l.148.122c2.7,2.127,4.637-4.9,4.637-4.9s-.729-6.555-1.737-14.5l-.1-.79a40.806,40.806,0,0,0,4.715.721s.868-.078,2.058-.226a56.964,56.964,0,0,0,10.367,4.689l5.739-10.593a43.1,43.1,0,0,1,3.777-6.278c1.737-2.127,7.867-8.935,7.762-10.211s2.049-8.622,4.2-11.921S882.874,532.919,882.769,532.389Zm-23.93,8.084c-2.266.955-4.42,6.278-4.524,7.875s-2.483,8.613-4.958,9.464c-2.284.781-6.642,4.793-7.337,5.435-.712.061-1.519.156-2.362.3-.946-6.712-1.884-12.269-2.483-13.389-1.737-3.2,1.9-13.406,1.9-13.406s.356-10.315,2.6-12.764,1.737-8.622,1.737-8.622.538-2.553.755-3.716,3.2,0,3.23,0h0s5.817,3.187,6.686,7.971,7.224,13.085,7.224,13.085-.972,2.874,0,4.341S861.106,539.518,858.84,540.473Z" transform="translate(-174.215 -79.481)"/><path class="d" d="M707,456.561a17.365,17.365,0,0,1,17.365-8.179v12.425H716.82l-5.9-1.493Z" transform="translate(-178.256 -86.486)"/><path class="e" d="M707,456.561a17.365,17.365,0,0,1,17.365-8.179v12.425H716.82l-5.9-1.493Z" transform="translate(-178.256 -86.486)"/><path class="f" d="M720.985,448.051l-9.247,6.477s-.078-1.294-.313-3.065c-.46-3.352-1.493-8.379-3.725-9.351-3.395-1.493-41.191-15.716-27.785-20.5s33.975,10.9,33.975,10.9,1.059.365,2.752,3.864c.868,1.841,2.058,4.975,2.952,7.537C720.42,446.219,720.985,448.051,720.985,448.051Z" transform="translate(-174.311 -82.865)"/><path class="d" d="M714.307,432l1.051-.495,2.952,3.369-2.414,5.149-4.116-1.65.955-4.116Z" transform="translate(-93.761 -56.842)"/><path class="g" d="M795.227,811s-2.657-.313-3.716,3.829-2.657,15.629-2.657,15.629-.634,7.007-1.91,8.6-2.544,11.574,6.477,12.842,12.955-4.854,12.955-4.854l-.321-27.846Z" transform="translate(-188.669 -134.277)"/><path class="g" d="M830.768,812.44s5.678,6.078,5.574,12.972-.643,16.35-.643,16.35-.521,3.829.643,4.888,0,6.373,0,6.373-9.985,9.264-18.373-.781c0,0-1.632-5.739-.955-9.438s2.57-20.326,2.57-20.326Z" transform="translate(-192.727 -134.467)"/><path class="f" d="M841.109,665.323s-5.731,16.028-8.179,19.745-4.133,10.419-4.133,10.419l-2.231,13.693a76.406,76.406,0,0,0-.747,9.238c.1,3.082-5.522,47.989-5.522,47.989l-8.917,11.366s-3.925,7.962-3.291,11.288-.425,8.6-1.737,10.193c0,0-.208,10.419-.53,12.738s1.172,8.926,0,10.089-16.775.643-17.2-1.276,1.91-11.149,1.91-11.149l1.381-8.917s2.761-4.88,2.127-6.477,1.163-5.305,1.268-5.626,2.978-5.522,2.448-7.537,3.343-44.855,3.343-44.855l10.932-76.764Z" transform="translate(-189.002 -114.318)"/><path class="h" d="M841.109,665.326s-.868,2.414-2.058,5.583c-1.893,5-4.619,11.887-6.121,14.161-2.44,3.716-4.142,10.419-4.142,10.419l-2.231,13.7a76.976,76.976,0,0,0-.738,9.238c0,1.216-.816,8.969-1.858,17.9-1.606,13.658-3.664,30.086-3.664,30.086l-8.917,11.366s-.451.868-1.016,2.24c-1.12,2.6-2.7,6.833-2.275,9.013.634,3.291-.425,8.6-1.737,10.194,0,0-.217,10.419-.53,12.738s1.172,8.917,0,10.089-16.775.643-17.2-1.268,1.91-11.149,1.91-11.149l1.381-8.926s2.761-4.88,2.119-6.477,1.172-5.305,1.276-5.626,2.978-5.522,2.449-7.537c-.408-1.537,1.736-26.691,2.735-38.621.339-3.751.556-6.191.556-6.191l9.4-66.041.764-5.323.764-5.4Z" transform="translate(-189.002 -114.321)"/><path class="f" d="M831.085,825.808c.1,1.172-14.978,2.874-17.131,1.6s0-17.1,0-17.1l.981-7.215c-1.051-.113-2.648-5.843-1.91-7.224s-.634-7.215-.634-7.215l-2.5-7.814-1.528-4.784c-2.483-5.479-6.078-21.108-8.309-32.777-1.407-7.328-2.3-13.1-2.1-13.84.53-1.91-.868-15.82-.868-15.82s-1.737-14.127-4.029-18.581c-1.554-2.952-4.585-14.04-6.46-21.194-.955-3.673-1.615-6.312-1.615-6.312s16.046-1.346,25.779-1.815c4.472-.217,7.615-.243,7.25.122s-.46,2.31-.443,5.123c.043,7.285,1.059,20.1,2.136,23.548,1.485,4.775,2.969,19.1,2.336,20.491s-.425,10.619-.425,10.619a47.758,47.758,0,0,1,1.875,11.522,155.755,155.755,0,0,1-.365,20.743s1.589,25.805,1.164,28.245,3.395,10.089,3.395,11.574,1.059,11.574,1.059,11.574S831.016,824.644,831.085,825.808Z" transform="translate(-188.529 -115.119)"/><path class="f" d="M841.689,486.1l-1.823,1.971-1.19,1.285-6.946,7.467-17.947,2.023-9.551-2.553-2.362-.634s0-4.793.425-10.541c.608-7.372,2.058-16.324,5.522-18.763a13.8,13.8,0,0,0,4.037-5.114,28.806,28.806,0,0,0,1.737-4.289c.069-.191.122-.373.182-.564a47.951,47.951,0,0,0,1.684-7.875s2.292-1.268,5.479-2.744c8.309-3.881,22.662-9.238,17.669,2.744a46.883,46.883,0,0,0-1.875,5.383c-.078.269-.148.538-.208.8-1.667,6.668-.564,10.714.677,12.946h0a8.1,8.1,0,0,0,.721,1.1,5.793,5.793,0,0,0,1.207,1.224l2.066,13.12.174,1.085Z" transform="translate(-190.753 -85.558)"/><path class="e" d="M840.395,449.253c-.946,2.275.46-1.858,0,0-3.786,2.692-12.7,10.358-17.713,10.358-3.386,0-4.4-.616-7.3-1.928a47.376,47.376,0,0,0,1.867-8.431S847.3,432.686,840.395,449.253Z" transform="translate(-192.533 -85.655)"/><path class="f" d="M845.976,430.788a23.165,23.165,0,0,1-20.726,23.018c-.8.078-1.606.13-2.422.13a23.148,23.148,0,1,1,23.148-23.148Z" transform="translate(-190.465 -81.144)"/><path class="e" d="M848.1,543.794l-3.3,8.6s-2.683.113-6.868.243c-14.127.451-45.254,1.025-46.644-2.6a9.232,9.232,0,0,1-.486-2.857c-.182-5.531,2.4-14.023,2.4-14.023s1.485-16.992,1.485-17.73-1.276-12.642-1.276-12.642l2.553-9.551,7.111-4.993s3.187,4.888,5.1,5.305,4.463,2.77,4.463,2.77,6.26,3.82,8.283,1.693,17.73-11.47,17.73-11.47l8.283,9.134Z" transform="translate(-189.294 -91.537)"/><path class="b" d="M848.1,545.314l-3.3,8.6s-2.683.122-6.868.252h-.408c-1.806.061-3.872.122-6.078.165-11.227.26-26.691.33-34.774-.868-3.039-.434-5.027-1.059-5.357-1.91a7.671,7.671,0,0,1-.382-1.58c-.052-.4-.087-.868-.1-1.276-.182-5.531,2.4-14.023,2.4-14.023s1.485-16.992,1.485-17.73-1.276-12.642-1.276-12.642l2.553-9.551,4.888-3.421,2.223-1.563a33.32,33.32,0,0,0,2.44,3.213,6.494,6.494,0,0,0,2.657,2.092c1.919.425,4.463,2.77,4.463,2.77s6.26,3.82,8.283,1.693c1.537-1.624,11.088-7.467,15.5-10.133,1.354-.825,2.231-1.337,2.231-1.337l1.111,1.233,7.172,7.9Z" transform="translate(-189.298 -91.737)"/><path class="e" d="M726.2,451.572l-9.247,6.477s-.078-1.294-.313-3.065c4.567-1.928,7.346-6.191,8.144-7.554C725.635,449.74,726.2,451.572,726.2,451.572Z" transform="translate(-179.526 -86.385)"/><path class="i" d="M757.413,473.685l-2.014-.538s-3.3,3.473-5.21,3.933-5.939,3.074-5.939,3.074l-4.68,3.716s-3.473.538-2.44-1.91-1.91-5.522-1.91-5.522-5.948-12.208-5.948-14.761-4.914-13.267-4.914-13.267-6.165,12-17.417,8.179c0,0,8.179,18.364,8.387,22.931s5.626,17.3,5.626,17.3,2.023,9.455,12.955,8.926c0,0,15.082,2.8,18.373,0s6.26-5.01,7.814-5.331a6.445,6.445,0,0,0,2.969-2.119V485.676Z" transform="translate(-178.249 -86.514)"/><path class="e" d="M743.3,491.33s2.657,9.881.955,10.94Z" transform="translate(-183.038 -92.168)"/><path class="e" d="M837.93,563.311c-14.127.451-45.254,1.016-46.644-2.6a9.232,9.232,0,0,1-.486-2.857l46.149,2.431Z" transform="translate(-189.295 -100.931)"/><path class="e" d="M840.639,665.323s-.868,2.414-2.058,5.583c-5.861-.356-13.623-.729-20.995-.781-2.6,0-5.158,0-7.571.087a57.038,57.038,0,0,0-12.373,1.372,32.815,32.815,0,0,1-11.027,1.424C785.66,669.335,785,666.7,785,666.7s16.046-1.346,25.779-1.815l.764-5.4Z" transform="translate(-188.531 -114.318)"/><path class="g" d="M851.474,613.247l-1.806,3.82s-.252,1.137-.573,2.943c-.677,3.89-1.737,10.906-1.337,16.5.53,8.179-1.172,20.6-1.172,20.6s-39.072-3.291-50.533,0-17.1,0-17.1,0,1.389-12.312-2.014-18.685c-2.318-4.341-3.951-23.721-4-36.467,0-5.878.3-10.332,1.033-11.235,2.336-2.865,12.312-31.536,12.312-31.536l2.275.122,6.078.321,34.557,1.823,5.427.287.573,1.737Z" transform="translate(-186.941 -101.106)"/><path class="d" d="M880.779,604.475l.321,3.4s-17.114-5.574-16.245-12.425,0-6.078,0-6.078l13.753,1.164Z" transform="translate(-199.046 -105.08)"/><path class="e" d="M880.779,604.475l.321,3.4s-17.114-5.574-16.245-12.425,0-6.078,0-6.078l13.753,1.164Z" transform="translate(-199.046 -105.08)"/><path class="e" d="M756.056,494.071a15.247,15.247,0,0,0,6.026,3.134,3.924,3.924,0,0,1-1.737-.868c-1.224-.868-2.388-1.815-3.569-2.735-.955-.747-2.145-1.988-3.317-2.292A18.284,18.284,0,0,0,756.056,494.071Z" transform="translate(-184.377 -92.165)"/><path class="e" d="M756.035,499a7.668,7.668,0,0,1,1.32,2.093,12.65,12.65,0,0,1-.1,6.573l-2.744-6.616c-.478-1.129-.955-2.258-1.528-3.334-.252-.46-1.832-2.379-1.65-2.778C751.824,493.8,755.523,498.363,756.035,499Z" transform="translate(-184.095 -92.619)"/><path class="e" d="M843.252,541.486a8.839,8.839,0,0,0,4.993-2.336c-2.822.356-5.5,1.467-8.275,2.049a12.294,12.294,0,0,1-7.71-.712C835.455,542.05,839.849,542.1,843.252,541.486Z" transform="translate(-194.757 -98.467)"/><path class="e" d="M833.63,518.176a1.937,1.937,0,0,1-1.433-.356q-3.178-1.823-6.269-3.8a41.631,41.631,0,0,1-6.139-4.237C824,513.583,827.926,516.8,833.63,518.176Z" transform="translate(-193.114 -94.598)"/><path class="e" d="M841.634,545.072a13.217,13.217,0,0,0,3.317-.269,4.445,4.445,0,0,0,2.726-1.789,1.563,1.563,0,0,0-1.155.182,19.484,19.484,0,0,1-10.662,1.276C837.588,545.211,839.8,545.063,841.634,545.072Z" transform="translate(-195.231 -98.971)"/><path class="e" d="M815.25,602.03a34.825,34.825,0,0,1-6.781,1.328,40.969,40.969,0,0,1-5.366-.1l-8.683-.547-4.341-.278c-.512,0-2.6,0-1.572-1.033.521-.5,3.421-.182,4.168-.208q2.162-.069,4.341-.078c2.874,0,5.757,0,8.631.174C808.868,601.44,812.037,601.683,815.25,602.03Z" transform="translate(-188.956 -106.629)"/><path class="e" d="M804.742,607c-1.476-.061-3.378.816-4.9,1.007a32.581,32.581,0,0,1-5.123.2,28.566,28.566,0,0,1-9.872-2.014C791.475,606.529,798.117,606.728,804.742,607Z" transform="translate(-188.511 -107.298)"/><path class="e" d="M785.881,612.318a14.2,14.2,0,0,1,1.893.521c3.664,1.042,7.563.122,11.288-.8a6.623,6.623,0,0,1-4.281,2.379,19.849,19.849,0,0,1-8.335.3c-.868-.174-3.048-.486-3.473-1.389C782.261,612.005,785.065,612.188,785.881,612.318Z" transform="translate(-188.249 -108.069)"/><path class="e" d="M809.171,619.96a28.335,28.335,0,0,1,3.247.868c4.124,1.025,8.4-.382,12.547-1.328a58.405,58.405,0,0,1,15.186-1.407c-.912,0-2.362.8-3.256,1.068-1.172.356-2.362.686-3.551.981-2.336.573-4.706,1.042-7.094,1.381a72.929,72.929,0,0,1-14.561.634c-2.223-.122-6.078.1-7.979-1.016a8.8,8.8,0,0,1,5.461-1.181Z" transform="translate(-190.996 -108.861)"/><path class="e" d="M806.671,468.68s.208,9.777-1.381,14.24c-.5,1.389-1.285,3.951-2.136,6.825-.929,3.187-1.945,6.755-2.726,9.551s-1.3,4.671-1.3,4.671-3.586,29.209-4.515,43.127a3.4,3.4,0,0,1-.052.729c-.052.781-.139,1.6-.269,2.44C792.223,564.086,780.3,585.4,776.3,587.1a11.914,11.914,0,0,0-3.369,2.318c0-5.878.3-10.332,1.033-11.235,2.336-2.865,12.312-31.536,12.312-31.536l2.275.122c-.052-.4-.087-.868-.1-1.276-.182-5.531,2.4-14.023,2.4-14.023s1.485-16.992,1.485-17.73-1.276-12.642-1.276-12.642l2.553-9.551,4.888-3.421c.608-7.372,2.058-16.324,5.522-18.763a13.8,13.8,0,0,0,4.037-5.114c.686.1-.564-.512-.564-.512Z" transform="translate(-186.941 -88.534)"/><path class="i" d="M804.516,463.068a6.321,6.321,0,0,0-5.375.608c-2.448,1.737-7.224,1.589-8.5,1.276s-14.544-2.023-15.629-1.6-3.187-1.485-4.567,1.068-2.014,3.925-3.395,4.558-3.829,2.657-3.473,3.082-3.473,2.969-3.473,2.969l7.745,25.18s-4.993,31.848-7.432,34.609-24.1,38.543-16.349,44.916A154.293,154.293,0,0,0,763.5,592.762c.868.425,3.924-5.305,8.17-7.111s17.418-25.7,18.234-39.289,4.567-43.848,4.567-43.848,4.567-16.567,6.156-21.03,1.381-14.24,1.381-14.24Z" transform="translate(-182.92 -88.4)"/><path class="e" d="M859.964,601.825l-1.806,3.82s-.252,1.137-.573,2.943a1.624,1.624,0,0,1-.868-.391c-2.657-2.127-18.234-18.155-19.006-32.386-.547-10.5-.287-19.545-.113-23.574.052-1.268.1-2.032.1-2.2h0s12.1-14.656,10.723-19.849-4.567-32.994-4.567-32.994l-.469-3.647-.807-6.165-1.928-14.917,2,.469a5.791,5.791,0,0,0,1.207,1.224l2.066,13.12,7.172,7.9,1.172,48.1-3.3,8.6s-2.683.122-6.868.252h-.408Z" transform="translate(-195.431 -89.684)"/><path class="i" d="M866.826,522.326s-2.969-1.172-3.178,0-.747,3.708-.747,3.708.53,6.165-1.737,8.6-2.6,12.738-2.6,12.738-3.577,10.194-1.884,13.38c.616,1.155,1.572,6.946,2.527,13.892.608,4.341,1.207,9.108,1.737,13.467.964,7.919,1.684,14.474,1.684,14.474s-1.919,7.007-4.576,4.88-18.234-18.156-19-32.387c-.521-9.994-.313-18.677-.139-22.957.069-1.815.139-2.839.139-2.839s12.1-14.656,10.723-19.857-4.567-32.994-4.567-32.994l-.556-4.3-.6-4.619-.139-1.016-1.919-14.761h0c.339.078,12.251,2.77,13.823,4.341S867.1,479.9,867.1,479.9a8.492,8.492,0,0,1,6.026,6.182c.1.3.165.608.234.929,1.276,6.165.868,6.9,1.737,7.971S866.826,522.326,866.826,522.326Z" transform="translate(-195.608 -89.587)"/><path class="e" d="M862.776,603.717c-4.341-.868-10.784-2.874-10.636-7.3.13-4.142,5.114-5.635,8.891-6.165C861.638,594.574,862.238,599.358,862.776,603.717Z" transform="translate(-197.375 -105.198)"/><path class="f" d="M876.339,601.369c-.174.373-.868.695-1.858.981a50.084,50.084,0,0,1-7.059,1.155s-14.761-1.172-14.552-7.866c.156-4.8,6.825-6.078,10.567-6.365a24.315,24.315,0,0,1,2.492-.1S876.973,600,876.339,601.369Z" transform="translate(-197.471 -105.056)"/><path class="e" d="M877.821,601.369c-.174.373-.868.695-1.858.981-3.846-5.149-9.212-11.756-11.843-12.338l.8-.738a24.315,24.315,0,0,1,2.492-.1S878.455,600,877.821,601.369Z" transform="translate(-198.954 -105.056)"/><path class="i" d="M874.2,497.69l4.341.642a75.459,75.459,0,0,0,5.21,7.962,8.683,8.683,0,0,1,1.91,5.1s6.373,9.447,8.388,10.506,5.1,8.283,5.1,8.283,4.993,3.291,4.993,7.007a62.418,62.418,0,0,0,.955,9.238c.113.53-.738,7.12-2.865,10.419s-4.255,10.576-4.142,11.878-5.948,8.075-7.641,10.194a43.164,43.164,0,0,0-3.716,6.269L881.105,595.8s-11.9-17.522-16.245-18.477c0,0,4.88-4.671,7.32-5.522s4.784-7.814,4.888-9.447,2.231-6.9,4.454-7.814,3.4-1.91,2.449-3.4,0-4.341,0-4.341-6.269-8.283-7.12-13.024-6.582-7.962-6.582-7.962l-3.291-8.075Z" transform="translate(-199.051 -93.006)"/><path class="e" d="M893.208,542.847a13.779,13.779,0,0,1,8.57-3.247c-2.014.347-4.133.79-5.609,2.2a13.226,13.226,0,0,0-1.554,1.98c-.5.721-4.6,5.93-5.21,5.105C888.389,547.675,892.383,543.551,893.208,542.847Z" transform="translate(-202.263 -98.526)"/><path class="e" d="M882.73,534.987a3.673,3.673,0,0,0,3.03-2.145,12.028,12.028,0,0,0,.946-3.768,56.21,56.21,0,0,1,1.311-6.451,2.987,2.987,0,0,0-.182-2.6,8.806,8.806,0,0,0-.938-1.928c-.781.868-1.007,2.891-1.328,4.055-.4,1.441-.764,2.891-1.111,4.341C884.276,527.181,882.834,534.987,882.73,534.987Z" transform="translate(-201.405 -95.693)"/><path class="e" d="M868.876,477.573a8.946,8.946,0,0,1-1.467,1.511c-1.737,1.381-4.037,2.544-4.255,4.723a5.081,5.081,0,0,1-.26,2.093c-.556.955-1.919.868-3,.686a5.209,5.209,0,0,1-2.544-.938c-1.138-.973-1.242-2.709-2.11-3.933a5.357,5.357,0,0,0-4.341-1.919c-1.624-.052-3.239.313-4.862.382a13.365,13.365,0,0,1-3.117-.208,9.874,9.874,0,0,1-1.007-.208,12.958,12.958,0,0,1-2.119-.721,9.328,9.328,0,0,1-1.033-.486,13.717,13.717,0,0,1-3-2.084c-1.589-1.459-2.909-3.473-2.778-5.635.078-1.328.677-2.553.868-3.864.651-3.751-1.841-7.293-4.541-9.976-1.077-1.068-2.223-2.1-3.3-3.187a15.881,15.881,0,0,1-3.881-5.54,16.5,16.5,0,0,1-.695-6.946,47.926,47.926,0,0,0,.2-7.137c-.8-8.44-8.005-14.908-15.212-18.425l-.321-.165a23.139,23.139,0,1,1,31.128,33.863c-.078.269-.148.538-.208.8-1.667,6.668-.564,10.714.677,12.946h0c.339.078,12.251,2.77,13.823,4.341s11.288,3.82,11.288,3.82a8.491,8.491,0,0,1,6.069,6.208Z" transform="translate(-191.311 -81.146)"/><path class="g" d="M804.245,407.913c.478-.547,1.2-.825,1.684-1.354,1.5-1.632,0-4.3.547-6.451.59-2.388,3.525-3.43,5.974-3.178s4.741,1.381,7.189,1.658c3.8.425,7.484-1.224,11.192-2.188s8.188-1.016,10.74,1.823,2.379,7.676,5.557,9.733c1.467.946,3.317,1.051,4.906,1.737a10.081,10.081,0,0,1,4.15,3.968,20.786,20.786,0,0,1,3.143,13.293c-.269,2.518-1,4.966-1.294,7.484a21.792,21.792,0,0,0,.521,7.814c.669,2.6,2.119,5.418,4.715,6.252a7.953,7.953,0,0,1,1.737.6c1.5.938,1.3,3.143.92,4.862l-1.546,7.128c1.485,1.129,3.794.643,5.21,1.832a4.342,4.342,0,0,1,1.216,1.91,10.419,10.419,0,0,1-3.117,11.409c-1.737,1.381-4.037,2.544-4.255,4.715a4.9,4.9,0,0,1-.26,2.093c-.547.955-1.919.868-3,.686a5.21,5.21,0,0,1-2.535-.938c-1.146-.972-1.242-2.709-2.11-3.933a5.374,5.374,0,0,0-4.341-1.919c-1.632-.052-3.239.313-4.871.391a14.4,14.4,0,0,1-10.237-3.7c-1.6-1.467-2.909-3.473-2.787-5.644.078-1.32.677-2.553.868-3.864.643-3.742-1.841-7.293-4.541-9.976s-5.87-5.158-7.189-8.726c-1.65-4.419-.052-9.351-.495-14.04-.8-8.448-8-14.908-15.212-18.433C805.113,412.133,802.378,410.04,804.245,407.913Z" transform="translate(-190.984 -79.585)"/><path class="e" d="M861.019,481c-1.146-.981-1.242-2.709-2.11-3.933a5.392,5.392,0,0,0-4.341-1.927c-1.632-.052-3.247.313-4.871.391a14.352,14.352,0,0,1-10.272-3.708,7.447,7.447,0,0,1-2.779-5.635c.078-1.328.677-2.561.868-3.864.651-3.751-1.841-7.3-4.541-9.985s-5.861-5.158-7.189-8.726c-1.641-4.411,0-9.343-.486-14.04-.807-8.448-8.005-14.908-15.212-18.433-1.685-.825-4.42-2.917-2.553-5.045.469-.547,1.19-.825,1.676-1.354,1.5-1.624,0-4.3.556-6.443a3.541,3.541,0,0,1,.547-1.19,4.631,4.631,0,0,0-3.916,3.1c-.53,2.153.955,4.819-.547,6.451-.486.53-1.207.807-1.684,1.346-1.867,2.127.868,4.228,2.553,5.045,7.215,3.525,14.413,9.994,15.212,18.433.443,4.7-1.155,9.629.495,14.049,1.32,3.56,4.489,6.078,7.189,8.726s5.21,6.226,4.541,9.976a33.285,33.285,0,0,0-.868,3.864c-.122,2.162,1.19,4.176,2.787,5.635a14.318,14.318,0,0,0,10.263,3.708c1.632-.078,3.239-.434,4.871-.391a5.4,5.4,0,0,1,4.341,1.928c.868,1.224.964,2.961,2.11,3.933a5.21,5.21,0,0,0,2.535.929c1.085.2,2.457.269,3-.677a2.344,2.344,0,0,0,.243-1.25,4.993,4.993,0,0,1-2.422-.912Z" transform="translate(-190.973 -79.757)"/><path class="j" d="M701.929,381.254H641.871V322.073h60.1Zm-.868-89.232H642.739c0-91.967,87.418-86.593,87.418-144.776,0-32.048-26.231-57.723-58.278-57.723s-58.27,27.681-58.27,58.634H555.33A116.349,116.349,0,0,1,671.878,31.61c64.374,0,116.548,51.358,116.548,115.636,0,72.753-87.409,81.036-87.409,144.776Z" transform="translate(-158.277 -31.61)"/><path class="k" d="M373.452,400.3h-15.49V385h15.49Zm-.234-23.009H358.2c0-23.7,22.532-22.323,22.532-37.336a14.952,14.952,0,0,0-15.021-14.891,15.342,15.342,0,0,0-14.986,15.108H335.7a30.049,30.049,0,1,1,60.1-.234c-.048,18.755-22.579,20.891-22.579,37.318Z" transform="translate(-129.346 -68.282)"/><path class="k" d="M508.522,522.716h-15.49V507.461h15.49Zm-.226-23H493.275c0-23.712,22.532-22.323,22.532-37.336A14.943,14.943,0,0,0,500.786,447.5a15.342,15.342,0,0,0-15.065,15.125H470.7a30.049,30.049,0,1,1,60.1-.234C530.819,481.143,508.3,483.288,508.3,499.716Z" transform="translate(-174.129 52.587)"/><path class="k" d="M592.245,309.786H581.018V298.75h11.227Zm-.165-16.68H581.192c0-17.174,16.332-16.176,16.332-27.047a10.836,10.836,0,0,0-10.888-10.784,11.114,11.114,0,0,0-10.888,10.958H564.86a21.776,21.776,0,1,1,43.552-.174C608.4,279.648,592.08,281.2,592.08,293.106Z" transform="translate(-159.533 -59.636)"/><path class="k" d="M592.245,309.786H581.018V298.75h11.227Zm-.165-16.68H581.192c0-17.174,16.332-16.176,16.332-27.047a10.836,10.836,0,0,0-10.888-10.784,11.114,11.114,0,0,0-10.888,10.958H564.86a21.776,21.776,0,1,1,43.552-.174C608.4,279.648,592.08,281.2,592.08,293.106Z" transform="translate(226.467 -85.636)"/><path class="k" d="M814.886,332.092h-6.347v-6.252h6.347Zm-.1-9.421H808.6c0-9.707,9.23-9.143,9.23-15.29a6.078,6.078,0,0,0-6.147-6.078,6.286,6.286,0,0,0-6.156,6.191H799.37a12.312,12.312,0,0,1,24.616-.1C824.02,315.031,814.79,315.942,814.79,322.671Z" transform="translate(-190.424 -66.366)"/><path class="k" d="M926.651,659.562H920.3v-6.252h6.347Zm-.1-9.421H920.4c0-9.716,9.238-9.143,9.238-15.29a6.121,6.121,0,0,0-6.156-6.078,6.278,6.278,0,0,0-6.156,6.191H911.17a12.312,12.312,0,0,1,24.616-.1c.035,7.667-9.195,8.544-9.195,15.273Z" transform="translate(-98.151 -169.503)"/><path class="l" d="M926.651,659.562H920.3v-6.252h6.347Zm-.1-9.421H920.4c0-9.716,9.238-9.143,9.238-15.29a6.121,6.121,0,0,0-6.156-6.078,6.278,6.278,0,0,0-6.156,6.191H911.17a12.312,12.312,0,0,1,24.616-.1c.035,7.667-9.195,8.544-9.195,15.273Z" transform="translate(-434.151 -96.503)"/><path class="l" d="M926.651,659.562H920.3v-6.252h6.347Zm-.1-9.421H920.4c0-9.716,9.238-9.143,9.238-15.29a6.121,6.121,0,0,0-6.156-6.078,6.278,6.278,0,0,0-6.156,6.191H911.17a12.312,12.312,0,0,1,24.616-.1c.035,7.667-9.195,8.544-9.195,15.273Z" transform="translate(-132.151 35.497)"/></g></g></svg>