<svg xmlns="http://www.w3.org/2000/svg" width="1159.846" height="920.581" viewBox="0 0 1159.846 920.581"><defs><style>.a{fill:#1994a4;opacity:0.05;}.b{fill:#fff;}.c,.g{fill:#054162;}.c{stroke:#054162;}.d{fill:#95dbe4;}.e{fill:#50aeba;}.f{fill:#e6e6e6;}.h{fill:#3f3d56;}.i{fill:#4291e2;}.j{fill:#2f2e41;}.k{fill:#ffb8b8;}.l{fill:#f16a24;}.m{opacity:0.2;}</style></defs><g transform="translate(-1003.697 -79.375)"><g transform="translate(-10866 -2621)"><path class="a" d="M1441.685,564.715c0,66.068-19.014,128.686-53.032,184.737q-8.817,14.552-18.971,28.485c-28.8,39.58-65.392,75.295-108.149,105.907q-3.924,2.8-7.9,5.548c-1.006.69-2,1.38-3,2.07q-6.273,4.247-12.69,8.365c-1.351.862-2.7,1.71-4.053,2.558-1.15.733-2.314,1.452-3.478,2.17q-18.691,11.555-38.66,21.86c-1.452.747-2.917,1.495-4.384,2.242-1.265.632-2.529,1.279-3.809,1.911-.891.446-1.8.891-2.687,1.322-1.495.747-3,1.48-4.513,2.2q-5.885,2.824-11.857,5.533c-1.825.834-3.665,1.667-5.519,2.472a.109.109,0,0,1-.057.029c-1.84.819-3.679,1.624-5.533,2.414-1.7.733-3.406,1.466-5.116,2.17q-7.718,3.255-15.565,6.295c-1.078.431-2.17.848-3.262,1.265-1.509.575-3,1.15-4.527,1.71-1.94.719-3.866,1.437-5.806,2.141-1.811.661-3.622,1.308-5.447,1.955l-.388.129c-1.825.647-3.65,1.279-5.49,1.9q-14.185,4.872-28.787,9.112c-1.221.359-2.443.7-3.665,1.049-.546.172-1.107.331-1.667.474-1.423.4-2.846.8-4.283,1.193-1.753.5-3.521.977-5.3,1.437q-7.437,1.983-14.947,3.794c-1.7.417-3.377.819-5.073,1.207a.206.206,0,0,1-.1.029l-5.088,1.164c-2.371.546-4.771,1.078-7.171,1.567-2.774.6-5.562,1.178-8.365,1.753-1.739.345-3.478.69-5.217,1.02s-3.492.675-5.231.992q-13.129,2.436-26.473,4.383c-3.306.474-6.611.934-9.945,1.38-2.041.273-4.1.532-6.151.776-1.8.216-3.607.431-5.4.632s-3.593.4-5.4.6h-.014c-.172.029-.345.043-.517.057-2.946.316-5.907.6-8.868.891-1.739.172-3.478.316-5.231.46-1.567.144-3.147.273-4.728.388q-7.093.582-14.228.992-2.307.151-4.613.259c-3.277.187-6.554.331-9.845.46-1.365.057-2.745.115-4.11.158-3.679.129-7.373.216-11.066.287q-3.126.065-6.252.086-3.708.043-7.416.043c-119.589,0-257.042-40.96-370.264-100.5A795.8,795.8,0,0,1,429.9,848.561c-15.321-10.592-29.779-21.486-43.2-32.639C286.655,733,243.353,637.437,323.548,564.715q15.522-14.077,33.443-29.3,13.56-11.533,28.313-23.656c140.083-115.062,354.786-266,497.312-381.072C1122.855-63.282,1441.685,325.005,1441.685,564.715Z" transform="translate(11587.858 2622.208)"/><path class="b" d="M896.706,569.207l-58.968,7.646-3,.388-78.485,10.175L398,633.881c-15.32-10.592-29.779-21.486-43.2-32.639l409.974-24.231,70.911-4.2,2.975-.172Z" transform="translate(11619.756 2836.888)"/><path class="b" d="M645.611,368.207l-311.483,40.4q13.56-11.534,28.313-23.656Z" transform="translate(11610.72 2749.012)"/><path class="b" d="M1185.348,553.134q-8.817,14.552-18.971,28.485l-270.624-35.1L746.86,527.207l146.464,8.666Z" transform="translate(11791.163 2818.526)"/><path class="b" d="M1185.348,553.134q-8.817,14.552-18.971,28.485l-270.624-35.1L746.86,527.207l146.464,8.666Z" transform="translate(11647.163 2306.526)"/></g><g transform="translate(1108.357 276)"><path class="c" d="M616.209,303.42c12.491.8,26.1-.046,40.582,0V270.268a146.265,146.265,0,0,1-40.581,0Z" transform="translate(-0.825 -176.102)"/><ellipse class="c" cx="30.507" cy="30.507" rx="30.507" ry="30.507" transform="translate(605.121 45.354)"/><path class="b" d="M24.406,0A24.406,24.406,0,1,1,0,24.406a24.684,24.684,0,0,1,6.061-16.1A24.051,24.051,0,0,1,24.406,0Z" transform="translate(611.223 51.456)"/><ellipse class="c" cx="6.101" cy="6.101" rx="6.101" ry="6.101" transform="translate(629.527 69.76)"/><rect class="c" width="3.051" height="24.406" transform="translate(638.679 74.336) rotate(90)"/><rect class="c" width="3.051" height="24.406" transform="translate(634.104 54.506)"/><path class="d" d="M221.747,453.949l-2.709-4.187a62.763,62.763,0,0,1,2.779-6.507l1.752,1.415-1.387-2.144c1.322-2.6,2.362-4.242,2.362-4.242s5.433,8.562,7.249,17.628l-3.477,5.373,3.849-3.109a25.393,25.393,0,0,1,.211,3.185c0,10.736-3.507,19.44-7.832,19.44s-7.832-8.7-7.832-19.44A33.435,33.435,0,0,1,218.5,451.33Z" transform="translate(411.409 -143.289)"/><path class="e" d="M235.751,466.6l-4.876-1.045a62.775,62.775,0,0,1-2.635-6.566l2.239-.238-2.5-.535c-.905-2.775-1.329-4.67-1.329-4.67s9.9,2.212,17.59,7.339l1.341,6.257.523-4.92a25.4,25.4,0,0,1,2.4,2.1c7.592,7.592,11.267,16.226,8.208,19.284S245.024,483,237.432,475.4a33.436,33.436,0,0,1-5.827-8.361Z" transform="translate(378.229 -146.634)"/><path class="c" d="M210.117,515.047c11.308.723,23.629-.042,36.736,0V485.038c-11.55,1.8-23.867,1.613-36.736,0Z" transform="translate(402.082 -153.534)"/><rect class="f" width="152.667" height="197.99" transform="translate(145.11 370.932)"/><rect class="f" width="7.951" height="187.653" transform="translate(608.676 381.269)"/><rect class="f" width="543.875" height="15.903" transform="translate(145.11 357.415)"/><rect class="f" width="15.903" height="15.903" transform="translate(604.701 373.318)"/><path class="g" d="M567.312,489.8l.895,3.579h22.264l1.342-3.579h56.7v36.577H510.162V489.8Z" transform="translate(-357.896 -107.334)"/><path class="g" d="M567.312,548.857l.895,3.578h22.264l1.342-3.578h56.7v36.576H510.162V548.857Z" transform="translate(-357.896 -120.277)"/><path class="g" d="M567.312,607.918l.895,3.578h22.264l1.342-3.578h56.7v36.576H510.162V607.918Z" transform="translate(-357.896 -133.22)"/><path class="g" d="M567.312,666.979l.895,3.578h22.264l1.342-3.578h56.7v36.576H510.162V666.979Z" transform="translate(-357.896 -146.162)"/><path class="f" d="M317.706,448.863h46.913l-1.59-20.673H319.3Z" transform="translate(76.283 -93.834)"/><rect class="f" width="52.479" height="4.771" transform="translate(390.808 352.645)"/><path class="h" d="M390.676,318.128h179.3a4.771,4.771,0,0,1,4.771,4.771V432.23H385.905V322.9a4.771,4.771,0,0,1,4.77-4.77Z" transform="translate(-63.081 -116.957)"/><path class="f" d="M574.751,464.252v17.89a4.771,4.771,0,0,1-4.771,4.771h-179.3a4.771,4.771,0,0,1-4.771-4.771v-17.89Z" transform="translate(-63.081 -148.979)"/><rect class="b" width="170.16" height="95.417" transform="translate(331.967 211.109)"/><ellipse class="h" cx="4.771" cy="4.771" rx="4.771" ry="4.771" transform="translate(412.277 321.634)"/><path class="g" d="M951.562,774.615c17.377,1.112,36.312-.065,56.455,0V728.5c-17.749,2.763-36.678,2.479-56.455,0Z" transform="translate(-938.045 -206.886)"/><path class="g" d="M825.322,647.145h4.771l-1.591-93.2h-1.59Z" transform="translate(-785.568 -121.393)"/><path class="g" d="M852.816,647.952h4.771L856,554.755h-1.59Z" transform="translate(-834.531 -121.57)"/><path class="g" d="M800.883,647.952h4.771l-1.591-93.2h-1.59Z" transform="translate(-742.046 -121.57)"/><path class="d" d="M970.968,525.582l-7.7-11.9a178.421,178.421,0,0,1,7.9-18.5l4.98,4.022-3.943-6.094c3.758-7.4,6.715-12.058,6.715-12.058s15.446,24.34,20.606,50.11l-9.883,15.273,10.941-8.837a72.2,72.2,0,0,1,.6,9.052c0,30.521-9.968,55.262-22.264,55.262s-22.264-24.742-22.264-55.262c0-9.462,2.141-19.361,5.093-28.517Z" transform="translate(-935.19 -152.661)"/><path class="e" d="M998.458,527.618l-7.7-11.9a178.453,178.453,0,0,1,7.9-18.5l4.98,4.022-3.943-6.094c3.758-7.4,6.715-12.058,6.715-12.058s15.445,24.34,20.606,50.11l-9.883,15.273,10.941-8.837a72.2,72.2,0,0,1,.6,9.052c0,30.52-9.968,55.262-22.264,55.262s-22.264-24.742-22.264-55.262c0-9.462,2.141-19.361,5.093-28.517Z" transform="translate(-984.145 -153.107)"/><path class="e" d="M946.529,527.618l-7.7-11.9a178.438,178.438,0,0,1,7.9-18.5l4.98,4.022-3.943-6.094c3.758-7.4,6.715-12.058,6.715-12.058s15.446,24.34,20.606,50.11L965.2,548.473l10.941-8.837a72.216,72.216,0,0,1,.6,9.052c0,30.52-9.968,55.262-22.264,55.262s-22.264-24.742-22.264-55.262c0-9.462,2.141-19.361,5.093-28.517Z" transform="translate(-891.667 -153.107)"/><rect class="h" width="45.88" height="2.634" transform="translate(401.067 238.043)"/><rect class="i" width="70.849" height="2.634" transform="translate(376.098 247.65)"/><rect class="i" width="57.74" height="2.634" transform="translate(389.207 256.701)"/><rect class="h" width="33.708" height="2.634" transform="translate(413.239 265.719)"/><rect class="h" width="50.874" height="2.634" transform="translate(396.073 274.735)"/><rect class="h" width="5.618" height="5.618" transform="translate(462.241 237.107)"/><rect class="i" width="5.618" height="5.618" transform="translate(462.241 246.158)"/><rect class="i" width="5.618" height="5.618" transform="translate(462.241 255.209)"/><rect class="h" width="5.618" height="5.618" transform="translate(462.241 264.261)"/><rect class="h" width="5.618" height="5.618" transform="translate(462.241 273.312)"/><path class="e" d="M573.531,350.907h24.076a84.206,84.206,0,0,0,0-28.706H573.531a51.654,51.654,0,0,1,0,28.706Z" transform="translate(-233.68 -117.85)"/><path class="j" d="M369,414.028l9.905-2.414a25.5,25.5,0,0,0,25.027-30.55h0a33.331,33.331,0,0,0-33.289-33.373h0a33.331,33.331,0,0,0-33.373,33.289h0A26.487,26.487,0,0,0,369,414.028Z" transform="translate(146.04 -123.436)"/><ellipse class="k" cx="24.491" cy="24.491" rx="24.491" ry="24.491" transform="translate(479.728 245.095)"/><path class="k" d="M383.121,422.108s7.454,25.555,11.713,27.685-34.074,5.324-34.074,5.324,1.065-24.491-1.065-26.62S383.121,422.108,383.121,422.108Z" transform="translate(137.07 -139.744)"/><path class="j" d="M408.139,623.781s-47.916-4.259-54.305,11.713,4.259,110.741,4.259,110.741h20.231V668.5s86.264-24.52,86.264-33.039S408.139,623.781,408.139,623.781Z" transform="translate(73.719 -183.826)"/><path class="j" d="M480.147,775.29,469.5,779.549s-12.778-1.065-7.454,8.519a21.086,21.086,0,0,0,14.907,10.648s20.231,7.454,21.3,0-5.324-22.361-5.324-22.361Z" transform="translate(-45.141 -217.14)"/><path class="j" d="M404.593,621.738s-47.916-4.259-54.305,11.713,4.259,110.741,4.259,110.741h20.231V666.46s61.233-14.184,61.233-22.7c0-4,4.173-24.34-3.181-28.625C424.532,610.3,404.593,621.738,404.593,621.738Z" transform="translate(103.885 -181.782)"/><path class="j" d="M446.056,775.29l-10.648,4.259s-12.778-1.065-7.454,8.519a21.086,21.086,0,0,0,14.907,10.648s20.231,7.454,21.3,0-5.324-22.361-5.324-22.361Z" transform="translate(15.57 -217.14)"/><path class="l" d="M406.879,453.471l-32,3.478a23.568,23.568,0,0,0-20.512,18.558L341.925,534.4s-4.259,58.565,4.259,61.759,20.231-12.778,36.2-10.648,36.736,6.921,36.736,6.921,3.3-104.828,3.727-113.4C423.71,461.886,406.879,453.471,406.879,453.471Z" transform="translate(123.96 -146.617)"/><path class="k" d="M486.314,627.823l-13.137,7.737s-23.569-3.382-22.833,4.9,26.462,6.683,26.462,6.683l15.832-9.755Z" transform="translate(-31.274 -184.824)"/><ellipse class="j" cx="15.82" cy="15.82" rx="15.82" ry="15.82" transform="translate(535.935 218.028)"/><path class="j" d="M332.652,344.313a15.813,15.813,0,0,1,18.933-15.489,15.813,15.813,0,1,0-9.862,29.8A15.807,15.807,0,0,1,332.652,344.313Z" transform="translate(204.506 -118.969)"/><path class="j" d="M391.191,359.473l-21.328-3.927-16.4,10.28A24.88,24.88,0,0,0,342,390.107l16.427-4.164,3.678-9.224,4.381,7.181,22.906,29.478,12.861-8.19,11.465-17.967Z" transform="translate(132.396 -125.157)"/><path class="l" d="M453.83,463.577l-10.648-5.324s-22.361,3.194-26.62,18.1-23.426,118.194-23.426,118.194l18.1,8.519,25.555-62.824Z" transform="translate(52.193 -147.664)"/><path class="m" d="M275.472,458.23,264.815,499.6l-18.9,46.458.655,1.609,22.539-47.29Z" transform="translate(221.486 -100.417)"/><path class="h" d="M177.183,719.667l3.758-1.295L144.534,610.231l-5.263,1.813Z" transform="translate(399.293 -133.727)"/><path class="h" d="M277.5,719.667l-3.759-1.295,36.408-108.141,5.262,1.813Z" transform="translate(159.822 -133.727)"/><path class="h" d="M228.526,743.5l-3.975.014L223.315,617.1l5.566-.02Z" transform="translate(285.727 -135.228)"/><path class="e" d="M453.015,583.275,442.11,627.35A35,35,0,0,1,416.621,652.9h0a186.049,186.049,0,0,1-92.569-.6l-16.282-4.294a22.98,22.98,0,0,1-17.248-20.381,20.056,20.056,0,0,1,1.814-10.051q.1-.2.192-.4a26.6,26.6,0,0,1,23.112-14.944l17.248-.556,62.816-27.83s21.6-10.974,39.364-12.2A17.418,17.418,0,0,1,453.015,583.275Z" transform="translate(132.662 -170.312)"/><rect class="f" width="62.021" height="84.285" transform="translate(202.757 274.323)"/><rect class="b" width="47.708" height="64.834" transform="translate(209.914 284.048)"/><rect class="h" width="23.115" height="2.634" transform="translate(215.731 301.015)"/><rect class="h" width="5.618" height="5.618" transform="translate(246.188 299.557)"/><rect class="h" width="23.115" height="2.634" transform="translate(215.731 312.147)"/><rect class="h" width="5.618" height="5.618" transform="translate(246.188 310.689)"/><rect class="h" width="23.115" height="2.634" transform="translate(215.731 323.279)"/><rect class="h" width="5.618" height="5.618" transform="translate(246.188 321.821)"/><rect class="h" width="4.771" height="4.771" rx="2.385" transform="translate(231.383 276.708)"/></g></g></svg>